<?xml version="1.0" encoding="utf-8"?>
<!-- Generator: Adobe Illustrator 27.3.1, SVG Export Plug-In . SVG Version: 6.00 Build 0)  -->
<svg version="1.1" id="Layer_1" xmlns="http://www.w3.org/2000/svg" xmlns:xlink="http://www.w3.org/1999/xlink" x="0px" y="0px"
	 viewBox="0 0 315 315" style="enable-background:new 0 0 315 315;" xml:space="preserve">
<style type="text/css">
	.st0{fill:none;stroke:#000000;stroke-width:7;}
	.st1{fill:none;stroke:#000000;}
	.st2{stroke:#000000;}
</style>
<g>
	<g id="Frame">
		<path class="st0" d="M157.5,17h64.1c0,0,12.1,19.9,17,25.5C250.6,56,276.1,57,276.1,57c0,52.5-19,159.5-118.6,241
			C57.9,216.5,38.9,109.5,38.9,57c0,0,25.5-1,37.5-14.5c4.9-5.6,17-25.5,17-25.5H157.5"/>
	</g>
	<g id="Castle">
		<rect x="68.4" y="77.1" class="st1" width="46.5" height="60.9"/>
		<line class="st1" x1="68.4" y1="84.3" x2="114.9" y2="84.3"/>
		<line class="st1" x1="68.4" y1="92" x2="114.9" y2="92"/>
		<line class="st1" x1="68.4" y1="99.8" x2="245.7" y2="99.8"/>
		<line class="st1" x1="68.4" y1="107.5" x2="245.7" y2="107.5"/>
		<line class="st1" x1="68.4" y1="115.2" x2="245.7" y2="115.2"/>
		<line class="st1" x1="68.4" y1="122.9" x2="245.7" y2="122.9"/>
		<line class="st1" x1="68.4" y1="130.7" x2="245.7" y2="130.7"/>
		<line class="st1" x1="74.7" y1="77.1" x2="74.7" y2="84.3"/>
		<line class="st1" x1="87.9" y1="77.1" x2="87.9" y2="84.3"/>
		<line class="st1" x1="103.3" y1="77.1" x2="103.3" y2="84.3"/>
		<line class="st1" x1="97.6" y1="84.3" x2="97.6" y2="92"/>
		<line class="st1" x1="80.5" y1="84.3" x2="80.5" y2="92"/>
		<line class="st1" x1="74.7" y1="92" x2="74.7" y2="99.8"/>
		<line class="st1" x1="87.9" y1="92" x2="87.9" y2="99.8"/>
		<line class="st1" x1="103.3" y1="92" x2="103.3" y2="99.8"/>
		<line class="st1" x1="97.6" y1="99.8" x2="97.6" y2="107.5"/>
		<line class="st1" x1="80.5" y1="99.8" x2="80.5" y2="107.5"/>
		<line class="st1" x1="74.7" y1="107.5" x2="74.7" y2="115.2"/>
		<line class="st1" x1="87.9" y1="107.5" x2="87.9" y2="115.2"/>
		<line class="st1" x1="80.5" y1="115.2" x2="80.5" y2="122.9"/>
		<line class="st1" x1="74.7" y1="122.9" x2="74.7" y2="130.7"/>
		<line class="st1" x1="87.9" y1="122.9" x2="87.9" y2="130.7"/>
		<line class="st1" x1="103.3" y1="122.9" x2="103.3" y2="130.7"/>
		<line class="st1" x1="97.6" y1="130.7" x2="97.6" y2="138"/>
		<line class="st1" x1="80.5" y1="130.7" x2="80.5" y2="138"/>
		<line class="st1" x1="103.3" y1="107.5" x2="103.3" y2="115.2"/>
		<rect x="199.2" y="77.1" class="st1" width="46.5" height="60.9"/>
		<line class="st1" x1="199.2" y1="92" x2="245.7" y2="92"/>
		<line class="st1" x1="199.2" y1="84.3" x2="245.7" y2="84.3"/>
		<line class="st1" x1="216.8" y1="138" x2="216.8" y2="130.7"/>
		<line class="st1" x1="210.9" y1="130.7" x2="210.9" y2="122.9"/>
		<line class="st1" x1="210.9" y1="115.2" x2="210.9" y2="107.5"/>
		<line class="st1" x1="210.9" y1="92" x2="210.9" y2="99.8"/>
		<line class="st1" x1="210.9" y1="77.1" x2="210.9" y2="84.3"/>
		<line class="st1" x1="216.8" y1="122.9" x2="216.8" y2="115.2"/>
		<line class="st1" x1="216.8" y1="107.5" x2="216.8" y2="99.8"/>
		<line class="st1" x1="216.8" y1="92" x2="216.8" y2="84.3"/>
		<line class="st1" x1="226.3" y1="84.3" x2="226.3" y2="77.1"/>
		<line class="st1" x1="239.8" y1="84.3" x2="239.8" y2="77.1"/>
		<line class="st1" x1="234.2" y1="92" x2="234.2" y2="84.3"/>
		<line class="st1" x1="239.8" y1="99.8" x2="239.8" y2="92"/>
		<line class="st1" x1="226.3" y1="99.8" x2="226.3" y2="92"/>
		<line class="st1" x1="234.2" y1="107.5" x2="234.2" y2="99.8"/>
		<line class="st1" x1="226.3" y1="115.2" x2="226.3" y2="107.5"/>
		<line class="st1" x1="239.8" y1="115.2" x2="239.8" y2="107.5"/>
		<line class="st1" x1="234.2" y1="122.9" x2="234.2" y2="115.2"/>
		<line class="st1" x1="226.3" y1="130.7" x2="226.3" y2="122.9"/>
		<line class="st1" x1="239.8" y1="130.7" x2="239.8" y2="122.9"/>
		<line class="st1" x1="234.2" y1="138" x2="234.2" y2="130.7"/>
		<line class="st1" x1="114.9" y1="92" x2="199.2" y2="92"/>
		<line class="st1" x1="114.9" y1="138" x2="199.2" y2="138"/>
		<line class="st1" x1="119.9" y1="92" x2="119.9" y2="99.8"/>
		<line class="st1" x1="133.7" y1="99.8" x2="133.7" y2="92"/>
		<line class="st1" x1="149" y1="92" x2="149" y2="99.8"/>
		<line class="st1" x1="164.5" y1="99.8" x2="164.5" y2="92"/>
		<line class="st1" x1="180" y1="92" x2="180" y2="99.8"/>
		<line class="st1" x1="194.7" y1="99.8" x2="194.7" y2="92"/>
		<line class="st1" x1="187.8" y1="99.8" x2="187.8" y2="107.5"/>
		<line class="st1" x1="170.5" y1="107.5" x2="170.5" y2="99.8"/>
		<line class="st1" x1="157.5" y1="99.8" x2="157.5" y2="107.5"/>
		<line class="st1" x1="143.5" y1="107.5" x2="143.5" y2="99.8"/>
		<line class="st1" x1="125.9" y1="99.8" x2="125.9" y2="107.5"/>
		<line class="st1" x1="119.9" y1="107.5" x2="119.9" y2="115.2"/>
		<line class="st1" x1="133.7" y1="115.2" x2="133.7" y2="107.5"/>
		<line class="st1" x1="149" y1="107.5" x2="149" y2="115.2"/>
		<line class="st1" x1="164.5" y1="115.2" x2="164.5" y2="107.5"/>
		<line class="st1" x1="180" y1="107.5" x2="180" y2="115.2"/>
		<line class="st1" x1="194.7" y1="115.2" x2="194.7" y2="107.5"/>
		<line class="st1" x1="187.8" y1="115.2" x2="187.8" y2="122.9"/>
		<line class="st1" x1="170.5" y1="122.9" x2="170.5" y2="115.2"/>
		<line class="st1" x1="157.5" y1="122.9" x2="157.5" y2="115.2"/>
		<line class="st1" x1="143.5" y1="115.2" x2="143.5" y2="122.9"/>
		<line class="st1" x1="125.9" y1="122.9" x2="125.9" y2="115.2"/>
		<line class="st1" x1="119.9" y1="122.9" x2="119.9" y2="130.7"/>
		<line class="st1" x1="133.7" y1="130.7" x2="133.7" y2="122.9"/>
		<line class="st1" x1="149" y1="122.9" x2="149" y2="130.7"/>
		<line class="st1" x1="164.5" y1="130.7" x2="164.5" y2="122.9"/>
		<line class="st1" x1="180" y1="122.9" x2="180" y2="130.7"/>
		<line class="st1" x1="194.7" y1="122.9" x2="194.7" y2="130.7"/>
		<line class="st1" x1="187.8" y1="130.7" x2="187.8" y2="138"/>
		<line class="st1" x1="170.5" y1="138" x2="170.5" y2="130.7"/>
		<line class="st1" x1="157.5" y1="130.7" x2="157.5" y2="138"/>
		<line class="st1" x1="143.5" y1="138" x2="143.5" y2="130.7"/>
		<line class="st1" x1="125.9" y1="130.7" x2="125.9" y2="138"/>
		<rect x="139.5" y="61.7" class="st1" width="35.4" height="30.4"/>
		<line class="st1" x1="139.5" y1="69.8" x2="174.9" y2="69.8"/>
	</g>
	<g id="Castle_-_Battlement">
		<rect x="68.3" y="69.8" class="st2" width="9.6" height="7.2"/>
		<rect x="87.4" y="69.8" class="st2" width="9.6" height="7.2"/>
		<rect x="105.3" y="69.7" class="st2" width="9.6" height="7.2"/>
		<rect x="199.2" y="69.8" class="st2" width="9.6" height="7.2"/>
		<rect x="236" y="69.8" class="st2" width="9.6" height="7.2"/>
		<rect x="217.3" y="69.8" class="st2" width="9.6" height="7.2"/>
		<rect x="114.9" y="84.8" class="st2" width="9.6" height="7.2"/>
		<rect x="133.9" y="84.8" class="st2" width="9.6" height="7.2"/>
		<rect x="152.4" y="84.6" class="st2" width="9.6" height="7.2"/>
		<rect x="170.5" y="84.8" class="st2" width="9.6" height="7.2"/>
		<rect x="189.5" y="84.8" class="st2" width="9.6" height="7.2"/>
		<line class="st1" x1="139.5" y1="77.1" x2="174.9" y2="77.1"/>
		<line class="st1" x1="153.1" y1="69.8" x2="153.1" y2="61.7"/>
		<line class="st1" x1="161.2" y1="61.7" x2="161.2" y2="69.8"/>
		<line class="st1" x1="168.7" y1="77.1" x2="168.7" y2="69.8"/>
		<line class="st1" x1="145.6" y1="77.1" x2="145.6" y2="69.8"/>
		<polygon class="st2" points="174.9,61.4 157.5,49.4 139.5,61.4 139.5,61.7 143.5,61.7 170.7,61.7 174.9,61.7 		"/>
	</g>
	<g id="Sticks">
		<path d="M161.7,230.7c14.7-11.9,28.7-27.2,28.7-27.2s30.8-37.7,39.8-50.8c1.5-2.2,5.6-5.1,10-2.8c3.3,1.7,2.3,7.2,1,9.2
			c-8.8,14-34.4,46-48.8,58.5c-5.3,4.6-13.7,11.9-22.6,18.6L161.7,230.7z"/>
		<path d="M154.7,246.4c-6,3.4-11.6,5.6-16,5.6c-6.3,0-13.9-3.5-17-6.5c-1.8-1.7-5.4-5.2-6.8-7.2c-0.5-0.9-1.2-2.4-1-3.4
			c0.4-1.7,2.2-2.3,3.2-2.6c2-0.6,3.6,0.3,4.3,0.6c4.6,2,9.8,11.4,14.9,11.4c3,0,6.6-1.3,10.5-3.4L154.7,246.4z"/>
		<path d="M180,244.3c-16.9,0-54.1-40.8-54.1-40.8s-30.8-37.7-39.8-50.8c-1.5-2.2-5.6-5.1-10-2.8c-3.3,1.7-2.3,7.2-1,9.2
			c8.8,14,34.4,46,48.8,58.5c12,10.5,39.5,34.2,53.8,34.2c6.3,0,13.9-3.5,17-6.5c1.8-1.7,5.4-5.2,6.8-7.2c0.5-0.9,1.2-2.4,1-3.4
			c-0.4-1.7-2.2-2.3-3.2-2.6c-2-0.6-3.6,0.3-4.3,0.6C190.3,234.9,185.1,244.3,180,244.3z"/>
		<circle cx="157.2" cy="215" r="6.2"/>
	</g>
	<g id="Text">
		<g>
			<path d="M138,160.2v26.6h-7.6v-26.6H138z M156.4,160.2L145.8,171l11.5,15.8h-9.7l-9.4-13.8l10.4-12.8L156.4,160.2L156.4,160.2z"
				/>
			<path d="M167.1,160.2v10.3h11v-10.3h7.6v26.6h-7.6l0.1-11.7h-11.1v11.7h-7.6v-26.6L167.1,160.2L167.1,160.2z"/>
		</g>
		<g>
			<path d="M106.4,36.7v13.9c0,0.6,0,1,0.1,1.1c0.1,0.2,0.2,0.4,0.4,0.4s0.6,0.1,1.1,0.1h1.8v2.5H98.8v-2.5h1.8c0.6,0,1,0,1.2-0.1
				c0.2-0.1,0.3-0.2,0.4-0.4s0.1-0.6,0.1-1.1v-9.9h-3.6v-2.5c1-0.1,1.8-0.2,2.3-0.3c0.8-0.2,1.7-0.4,2.6-0.7c0.5-0.2,1-0.3,1.4-0.5
				L106.4,36.7L106.4,36.7z"/>
			<path d="M115,55v-2.5c1.6-0.1,2.9-0.2,3.9-0.5s1.8-0.6,2.4-1s1.2-0.9,1.6-1.5c0.4-0.6,0.7-1.2,0.8-2c-0.7,0.5-1.5,0.9-2.1,1.1
				s-1.4,0.3-2.2,0.3c-1.2,0-2.3-0.3-3.3-0.8c-1-0.5-1.7-1.2-2.2-2.1c-0.5-0.9-0.8-1.9-0.8-3c0-1.9,0.7-3.4,2-4.7
				c1.3-1.2,3.1-1.8,5.4-1.8c2.3,0,4.2,0.6,5.5,1.9c1.5,1.5,2.3,3.5,2.3,6c0,1.7-0.3,3.2-0.8,4.4s-1.3,2.3-2.5,3.2s-2.4,1.6-3.9,2.1
				C119.7,54.7,117.7,55,115,55z M120.6,46.1c0.6,0,1.2-0.1,1.6-0.4s0.8-0.7,1.1-1.2s0.4-1.1,0.4-1.8c0-1-0.3-1.8-0.9-2.4
				s-1.3-0.9-2.2-0.9c-0.9,0-1.6,0.3-2.2,0.9s-0.9,1.4-0.9,2.4c0,1,0.3,1.8,0.9,2.4S119.7,46.1,120.6,46.1z"/>
		</g>
		<g>
			<path d="M194,36.7c1.6,0,2.9,0.3,4.1,1s2,1.7,2.7,3s1,2.9,1,4.9c0,2.3-0.3,4-0.9,5.2c-0.7,1.4-1.6,2.4-2.7,3.1s-2.5,1.1-4.2,1.1
				c-1.6,0-3-0.3-4.1-1s-2-1.7-2.6-3s-1-3-1-5.1c0-2.1,0.3-3.8,1-5.1s1.5-2.3,2.7-3S192.3,36.7,194,36.7z M197.3,45.8
				c0-2.3-0.3-4-1-5c-0.6-0.9-1.4-1.4-2.4-1.4c-0.9,0-1.7,0.5-2.3,1.4s-0.9,2.6-0.9,5s0.3,4,0.9,4.9s1.4,1.4,2.4,1.4
				c1,0,1.8-0.5,2.4-1.5S197.3,48.1,197.3,45.8z"/>
			<path d="M213,37h4v9.6h3.3v3.2H217v4.9h-4v-4.9h-8.4v-4L213,37z M213,41.1l-5.3,5.5h5.3V41.1z"/>
		</g>
	</g>
</g>
</svg>
